<?xml version="1.0" encoding="UTF-8" standalone="no"?>
<!DOCTYPE svg PUBLIC "-//W3C//DTD SVG 1.1//EN"
 "http://www.w3.org/Graphics/SVG/1.1/DTD/svg11.dtd">
<!-- Generated by graphviz version 2.40.1 (20161225.0304)
 -->
<!-- Title: %3 Pages: 1 -->
<svg width="1225pt" height="476pt"
 viewBox="0.00 0.00 1224.52 476.00" xmlns="http://www.w3.org/2000/svg" xmlns:xlink="http://www.w3.org/1999/xlink">
<g id="graph0" class="graph" transform="scale(1 1) rotate(0) translate(4 472)">
<title>%3</title>
<polygon fill="#ffffff" stroke="transparent" points="-4,4 -4,-472 1220.5153,-472 1220.5153,4 -4,4"/>
<!-- Down the rabbit hole -->
<g id="node1" class="node">
<title>Down the rabbit hole</title>
<ellipse fill="none" stroke="#000000" cx="687.8379" cy="-162" rx="92.662" ry="18"/>
<text text-anchor="middle" x="687.8379" y="-157.8" font-family="Times,serif" font-size="14.00" fill="#000000">Down the rabbit hole</text>
</g>
<!-- Ending 2 (fade) -->
<g id="node18" class="node">
<title>Ending 2 (fade)</title>
<ellipse fill="none" stroke="#000000" cx="830.8379" cy="-90" rx="71.7737" ry="18"/>
<text text-anchor="middle" x="830.8379" y="-85.8" font-family="Times,serif" font-size="14.00" fill="#000000">Ending 2 (fade)</text>
</g>
<!-- Down the rabbit hole&#45;&gt;Ending 2 (fade) -->
<g id="edge1" class="edge">
<title>Down the rabbit hole&#45;&gt;Ending 2 (fade)</title>
<path fill="none" stroke="#000000" d="M721.3651,-145.1192C741.7347,-134.8632 767.8969,-121.6906 789.5373,-110.7947"/>
<polygon fill="#000000" stroke="#000000" points="791.1471,-113.9029 798.5049,-106.2796 787.9991,-107.6506 791.1471,-113.9029"/>
</g>
<!-- The true story -->
<g id="node19" class="node">
<title>The true story</title>
<ellipse fill="none" stroke="#000000" cx="985.8379" cy="-90" rx="65.4091" ry="18"/>
<text text-anchor="middle" x="985.8379" y="-85.8" font-family="Times,serif" font-size="14.00" fill="#000000">The true story</text>
</g>
<!-- Down the rabbit hole&#45;&gt;The true story -->
<g id="edge2" class="edge">
<title>Down the rabbit hole&#45;&gt;The true story</title>
<path fill="none" stroke="#000000" d="M746.3291,-147.9342C791.5314,-137.0556 855.6574,-121.6045 911.8379,-108 916.7713,-106.8054 921.8892,-105.5642 927.0253,-104.3174"/>
<polygon fill="#000000" stroke="#000000" points="927.9899,-107.6849 936.8812,-101.9234 926.3376,-100.8827 927.9899,-107.6849"/>
</g>
<!-- Still down the rabbit hole -->
<g id="node2" class="node">
<title>Still down the rabbit hole</title>
<ellipse fill="none" stroke="#000000" cx="907.8379" cy="-162" rx="109.4107" ry="18"/>
<text text-anchor="middle" x="907.8379" y="-157.8" font-family="Times,serif" font-size="14.00" fill="#000000">Still down the rabbit hole</text>
</g>
<!-- Still down the rabbit hole&#45;&gt;Ending 2 (fade) -->
<g id="edge3" class="edge">
<title>Still down the rabbit hole&#45;&gt;Ending 2 (fade)</title>
<path fill="none" stroke="#000000" d="M888.8042,-144.2022C879.2,-135.2217 867.4025,-124.1902 856.9633,-114.4289"/>
<polygon fill="#000000" stroke="#000000" points="859.3475,-111.8665 849.6527,-107.593 854.5665,-116.9795 859.3475,-111.8665"/>
</g>
<!-- Still down the rabbit hole&#45;&gt;The true story -->
<g id="edge4" class="edge">
<title>Still down the rabbit hole&#45;&gt;The true story</title>
<path fill="none" stroke="#000000" d="M927.1188,-144.2022C936.9204,-135.1546 948.977,-124.0255 959.6099,-114.2105"/>
<polygon fill="#000000" stroke="#000000" points="962.0739,-116.6992 967.048,-107.3446 957.3259,-111.5556 962.0739,-116.6992"/>
</g>
<!-- Discussed notification late -->
<g id="node3" class="node">
<title>Discussed notification late</title>
<ellipse fill="none" stroke="#000000" cx="368.8379" cy="-306" rx="113.4567" ry="18"/>
<text text-anchor="middle" x="368.8379" y="-301.8" font-family="Times,serif" font-size="14.00" fill="#000000">Discussed notification late</text>
</g>
<!-- Discussed notification -->
<g id="node4" class="node">
<title>Discussed notification</title>
<ellipse fill="none" stroke="#000000" cx="252.8379" cy="-234" rx="97.2468" ry="18"/>
<text text-anchor="middle" x="252.8379" y="-229.8" font-family="Times,serif" font-size="14.00" fill="#000000">Discussed notification</text>
</g>
<!-- Discussed notification late&#45;&gt;Discussed notification -->
<g id="edge5" class="edge">
<title>Discussed notification late&#45;&gt;Discussed notification</title>
<path fill="none" stroke="#000000" d="M340.4612,-288.3868C325.181,-278.9026 306.1511,-267.0909 289.7335,-256.9007"/>
<polygon fill="#000000" stroke="#000000" points="291.264,-253.7313 280.9218,-251.4313 287.5724,-259.6788 291.264,-253.7313"/>
</g>
<!-- Dual private investigation -->
<g id="node10" class="node">
<title>Dual private investigation</title>
<ellipse fill="none" stroke="#000000" cx="370.8379" cy="-162" rx="111.175" ry="18"/>
<text text-anchor="middle" x="370.8379" y="-157.8" font-family="Times,serif" font-size="14.00" fill="#000000">Dual private investigation</text>
</g>
<!-- Discussed notification&#45;&gt;Dual private investigation -->
<g id="edge7" class="edge">
<title>Discussed notification&#45;&gt;Dual private investigation</title>
<path fill="none" stroke="#000000" d="M281.1019,-216.7542C296.7785,-207.1888 316.4716,-195.1727 333.4126,-184.8358"/>
<polygon fill="#000000" stroke="#000000" points="335.2715,-187.8017 341.9849,-179.6053 331.6254,-181.8262 335.2715,-187.8017"/>
</g>
<!-- Reported late -->
<g id="node16" class="node">
<title>Reported late</title>
<ellipse fill="none" stroke="#000000" cx="178.8379" cy="-162" rx="62.5788" ry="18"/>
<text text-anchor="middle" x="178.8379" y="-157.8" font-family="Times,serif" font-size="14.00" fill="#000000">Reported late</text>
</g>
<!-- Discussed notification&#45;&gt;Reported late -->
<g id="edge6" class="edge">
<title>Discussed notification&#45;&gt;Reported late</title>
<path fill="none" stroke="#000000" d="M234.5458,-216.2022C225.3372,-207.2425 214.0305,-196.2414 204.0152,-186.4968"/>
<polygon fill="#000000" stroke="#000000" points="206.2724,-183.8096 196.6643,-179.3446 201.3909,-188.8267 206.2724,-183.8096"/>
</g>
<!-- You can&#39;t ignore me -->
<g id="node5" class="node">
<title>You can&#39;t ignore me</title>
<ellipse fill="none" stroke="#000000" cx="1125.8379" cy="-162" rx="90.855" ry="18"/>
<text text-anchor="middle" x="1125.8379" y="-157.8" font-family="Times,serif" font-size="14.00" fill="#000000">You can&#39;t ignore me</text>
</g>
<!-- You can&#39;t ignore me&#45;&gt;Ending 2 (fade) -->
<g id="edge8" class="edge">
<title>You can&#39;t ignore me&#45;&gt;Ending 2 (fade)</title>
<path fill="none" stroke="#000000" d="M1068.6092,-148.0323C1017.9235,-135.6616 944.1302,-117.651 892.2278,-104.9833"/>
<polygon fill="#000000" stroke="#000000" points="893.0222,-101.5745 882.4775,-102.6035 891.3624,-108.3749 893.0222,-101.5745"/>
</g>
<!-- You can&#39;t ignore me&#45;&gt;The true story -->
<g id="edge9" class="edge">
<title>You can&#39;t ignore me&#45;&gt;The true story</title>
<path fill="none" stroke="#000000" d="M1093.0142,-145.1192C1073.0201,-134.8365 1047.3255,-121.6222 1026.1072,-110.7099"/>
<polygon fill="#000000" stroke="#000000" points="1027.5081,-107.4946 1017.0144,-106.0336 1024.3066,-113.7197 1027.5081,-107.4946"/>
</g>
<!-- Ending 3 (stop) -->
<g id="node6" class="node">
<title>Ending 3 (stop)</title>
<ellipse fill="none" stroke="#000000" cx="902.8379" cy="-18" rx="71.2326" ry="18"/>
<text text-anchor="middle" x="902.8379" y="-13.8" font-family="Times,serif" font-size="14.00" fill="#000000">Ending 3 (stop)</text>
</g>
<!-- Ending 1 (bad) -->
<g id="node7" class="node">
<title>Ending 1 (bad)</title>
<ellipse fill="none" stroke="#000000" cx="462.8379" cy="-18" rx="68.9274" ry="18"/>
<text text-anchor="middle" x="462.8379" y="-13.8" font-family="Times,serif" font-size="14.00" fill="#000000">Ending 1 (bad)</text>
</g>
<!-- Kept secret -->
<g id="node8" class="node">
<title>Kept secret</title>
<ellipse fill="none" stroke="#000000" cx="697.8379" cy="-234" rx="54.9713" ry="18"/>
<text text-anchor="middle" x="697.8379" y="-229.8" font-family="Times,serif" font-size="14.00" fill="#000000">Kept secret</text>
</g>
<!-- Kept secret&#45;&gt;Down the rabbit hole -->
<g id="edge12" class="edge">
<title>Kept secret&#45;&gt;Down the rabbit hole</title>
<path fill="none" stroke="#000000" d="M695.3145,-215.8314C694.245,-208.131 692.9733,-198.9743 691.7847,-190.4166"/>
<polygon fill="#000000" stroke="#000000" points="695.2378,-189.8367 690.3953,-180.4133 688.3044,-190.7997 695.2378,-189.8367"/>
</g>
<!-- Kept secret&#45;&gt;Still down the rabbit hole -->
<g id="edge11" class="edge">
<title>Kept secret&#45;&gt;Still down the rabbit hole</title>
<path fill="none" stroke="#000000" d="M735.8674,-220.9613C767.9834,-209.9501 814.4457,-194.0202 850.982,-181.4935"/>
<polygon fill="#000000" stroke="#000000" points="852.1974,-184.7768 860.5217,-178.2227 849.9271,-178.1552 852.1974,-184.7768"/>
</g>
<!-- Kept secret&#45;&gt;You can&#39;t ignore me -->
<g id="edge10" class="edge">
<title>Kept secret&#45;&gt;You can&#39;t ignore me</title>
<path fill="none" stroke="#000000" d="M747.3322,-226.0875C811.5809,-215.762 927.1634,-197.0023 1025.8379,-180 1033.3551,-178.7047 1041.186,-177.3335 1049.0102,-175.9488"/>
<polygon fill="#000000" stroke="#000000" points="1049.6597,-179.3883 1058.893,-174.1925 1048.4348,-172.4963 1049.6597,-179.3883"/>
</g>
<!-- Investigator tells NSA -->
<g id="node12" class="node">
<title>Investigator tells NSA</title>
<ellipse fill="none" stroke="#000000" cx="566.8379" cy="-90" rx="97.2857" ry="18"/>
<text text-anchor="middle" x="566.8379" y="-85.8" font-family="Times,serif" font-size="14.00" fill="#000000">Investigator tells NSA</text>
</g>
<!-- Kept secret&#45;&gt;Investigator tells NSA -->
<g id="edge13" class="edge">
<title>Kept secret&#45;&gt;Investigator tells NSA</title>
<path fill="none" stroke="#000000" d="M654.0648,-223.1199C630.4465,-215.0351 602.7501,-201.5767 585.8379,-180 572.1228,-162.5022 567.7058,-137.4189 566.5299,-118.1753"/>
<polygon fill="#000000" stroke="#000000" points="570.0274,-118.0387 566.1717,-108.1704 563.0319,-118.2893 570.0274,-118.0387"/>
</g>
<!-- Reported early -->
<g id="node9" class="node">
<title>Reported early</title>
<ellipse fill="none" stroke="#000000" cx="509.8379" cy="-234" rx="68.2976" ry="18"/>
<text text-anchor="middle" x="509.8379" y="-229.8" font-family="Times,serif" font-size="14.00" fill="#000000">Reported early</text>
</g>
<!-- Reported notification -->
<g id="node17" class="node">
<title>Reported notification</title>
<ellipse fill="none" stroke="#000000" cx="357.8379" cy="-90" rx="93.2376" ry="18"/>
<text text-anchor="middle" x="357.8379" y="-85.8" font-family="Times,serif" font-size="14.00" fill="#000000">Reported notification</text>
</g>
<!-- Reported early&#45;&gt;Reported notification -->
<g id="edge14" class="edge">
<title>Reported early&#45;&gt;Reported notification</title>
<path fill="none" stroke="#000000" d="M510.7506,-215.9898C510.7859,-196.1394 507.8463,-164.3335 490.8379,-144 476.0044,-126.2665 454.4556,-114.2942 433.0066,-106.2365"/>
<polygon fill="#000000" stroke="#000000" points="434.1079,-102.9138 423.513,-102.9105 431.7934,-109.5201 434.1079,-102.9138"/>
</g>
<!-- Kept secret late -->
<g id="node11" class="node">
<title>Kept secret late</title>
<ellipse fill="none" stroke="#000000" cx="608.8379" cy="-306" rx="71.1804" ry="18"/>
<text text-anchor="middle" x="608.8379" y="-301.8" font-family="Times,serif" font-size="14.00" fill="#000000">Kept secret late</text>
</g>
<!-- Kept secret late&#45;&gt;Kept secret -->
<g id="edge15" class="edge">
<title>Kept secret late&#45;&gt;Kept secret</title>
<path fill="none" stroke="#000000" d="M630.3824,-288.5708C642.0298,-279.1482 656.5666,-267.3881 669.1598,-257.2003"/>
<polygon fill="#000000" stroke="#000000" points="671.5316,-259.7835 677.1048,-250.7729 667.1289,-254.3413 671.5316,-259.7835"/>
</g>
<!-- Investigator tells NSA&#45;&gt;Ending 1 (bad) -->
<g id="edge16" class="edge">
<title>Investigator tells NSA&#45;&gt;Ending 1 (bad)</title>
<path fill="none" stroke="#000000" d="M530.8137,-73.1192C515.5353,-63.9133 498.4459,-52.3576 484.9702,-42.2078"/>
<polygon fill="#000000" stroke="#000000" points="486.737,-39.1484 476.6919,-35.7797 482.4438,-44.6773 486.737,-39.1484"/>
</g>
<!-- Investigator tells NSA&#45;&gt;Ending 1 (bad) -->
<g id="edge17" class="edge">
<title>Investigator tells NSA&#45;&gt;Ending 1 (bad)</title>
<path fill="none" stroke="#000000" d="M541.6624,-72.5708C527.8932,-63.0383 510.6685,-51.1134 495.8355,-40.8445"/>
<polygon fill="#000000" stroke="#000000" points="497.6369,-37.8347 487.4227,-35.0202 493.6524,-43.5901 497.6369,-37.8347"/>
</g>
<!-- Investigator tells NSA&#45;&gt;Ending 1 (bad) -->
<g id="edge18" class="edge">
<title>Investigator tells NSA&#45;&gt;Ending 1 (bad)</title>
<path fill="none" stroke="#000000" d="M552.4991,-71.8314C539.9987,-61.8273 522.1607,-49.3655 505.4941,-38.9522"/>
<polygon fill="#000000" stroke="#000000" points="507.2787,-35.941 496.9198,-33.7173 503.631,-41.9155 507.2787,-35.941"/>
</g>
<!-- Ignored notification -->
<g id="node13" class="node">
<title>Ignored notification</title>
<ellipse fill="none" stroke="#000000" cx="509.8379" cy="-378" rx="88.0028" ry="18"/>
<text text-anchor="middle" x="509.8379" y="-373.8" font-family="Times,serif" font-size="14.00" fill="#000000">Ignored notification</text>
</g>
<!-- Ignored notification&#45;&gt;Discussed notification late -->
<g id="edge21" class="edge">
<title>Ignored notification&#45;&gt;Discussed notification late</title>
<path fill="none" stroke="#000000" d="M476.7797,-361.1192C457.3519,-351.1986 432.58,-338.5491 411.6685,-327.8709"/>
<polygon fill="#000000" stroke="#000000" points="413.1662,-324.7058 402.6684,-323.2751 409.9827,-330.9401 413.1662,-324.7058"/>
</g>
<!-- Ignored notification&#45;&gt;Reported early -->
<g id="edge20" class="edge">
<title>Ignored notification&#45;&gt;Reported early</title>
<path fill="none" stroke="#000000" d="M509.8379,-359.7623C509.8379,-335.201 509.8379,-291.2474 509.8379,-262.3541"/>
<polygon fill="#000000" stroke="#000000" points="513.338,-262.0896 509.8379,-252.0896 506.338,-262.0897 513.338,-262.0896"/>
</g>
<!-- Ignored notification&#45;&gt;Kept secret late -->
<g id="edge19" class="edge">
<title>Ignored notification&#45;&gt;Kept secret late</title>
<path fill="none" stroke="#000000" d="M533.8031,-360.5708C546.7879,-351.1273 563.0008,-339.3361 577.0303,-329.1328"/>
<polygon fill="#000000" stroke="#000000" points="579.4064,-331.7326 585.4351,-323.0202 575.2891,-326.0714 579.4064,-331.7326"/>
</g>
<!-- Ending 4 (verge) -->
<g id="node14" class="node">
<title>Ending 4 (verge)</title>
<ellipse fill="none" stroke="#000000" cx="1068.8379" cy="-18" rx="76.4304" ry="18"/>
<text text-anchor="middle" x="1068.8379" y="-13.8" font-family="Times,serif" font-size="14.00" fill="#000000">Ending 4 (verge)</text>
</g>
<!-- Kept secret early -->
<g id="node15" class="node">
<title>Kept secret early</title>
<ellipse fill="none" stroke="#000000" cx="699.8379" cy="-378" rx="76.3995" ry="18"/>
<text text-anchor="middle" x="699.8379" y="-373.8" font-family="Times,serif" font-size="14.00" fill="#000000">Kept secret early</text>
</g>
<!-- Kept secret early&#45;&gt;Kept secret -->
<g id="edge22" class="edge">
<title>Kept secret early&#45;&gt;Kept secret</title>
<path fill="none" stroke="#000000" d="M699.5846,-359.7623C699.2435,-335.201 698.633,-291.2474 698.2318,-262.3541"/>
<polygon fill="#000000" stroke="#000000" points="701.7278,-262.04 698.0892,-252.0896 694.7285,-262.1373 701.7278,-262.04"/>
</g>
<!-- Reported late&#45;&gt;Reported notification -->
<g id="edge23" class="edge">
<title>Reported late&#45;&gt;Reported notification</title>
<path fill="none" stroke="#000000" d="M215.4932,-147.256C242.0508,-136.5736 278.28,-122.0009 307.5415,-110.231"/>
<polygon fill="#000000" stroke="#000000" points="309.2023,-113.3355 317.1737,-106.3566 306.59,-106.8412 309.2023,-113.3355"/>
</g>
<!-- Reported notification&#45;&gt;Ending 1 (bad) -->
<g id="edge24" class="edge">
<title>Reported notification&#45;&gt;Ending 1 (bad)</title>
<path fill="none" stroke="#000000" d="M371.9616,-72.2022C384.6286,-62.1311 402.891,-49.4808 419.9186,-38.935"/>
<polygon fill="#000000" stroke="#000000" points="421.9306,-41.8084 428.6742,-33.6368 418.3066,-35.8195 421.9306,-41.8084"/>
</g>
<!-- Reported notification&#45;&gt;Ending 1 (bad) -->
<g id="edge25" class="edge">
<title>Reported notification&#45;&gt;Ending 1 (bad)</title>
<path fill="none" stroke="#000000" d="M383.2555,-72.5708C397.1572,-63.0383 414.5475,-51.1134 429.5231,-40.8445"/>
<polygon fill="#000000" stroke="#000000" points="431.7488,-43.5621 438.0168,-35.0202 427.7901,-37.789 431.7488,-43.5621"/>
</g>
<!-- Reported notification&#45;&gt;Ending 1 (bad) -->
<g id="edge26" class="edge">
<title>Reported notification&#45;&gt;Ending 1 (bad)</title>
<path fill="none" stroke="#000000" d="M393.7925,-73.3008C409.3649,-64.0122 426.8641,-52.2899 440.6066,-42.0309"/>
<polygon fill="#000000" stroke="#000000" points="442.8308,-44.7358 448.6271,-35.8671 438.5653,-39.1855 442.8308,-44.7358"/>
</g>
<!-- The true story&#45;&gt;Ending 3 (stop) -->
<g id="edge27" class="edge">
<title>The true story&#45;&gt;Ending 3 (stop)</title>
<path fill="none" stroke="#000000" d="M965.746,-72.5708C955.2211,-63.4408 942.1664,-52.1163 930.682,-42.1539"/>
<polygon fill="#000000" stroke="#000000" points="932.88,-39.4272 923.0326,-35.5182 928.293,-44.7149 932.88,-39.4272"/>
</g>
<!-- The true story&#45;&gt;Ending 4 (verge) -->
<g id="edge28" class="edge">
<title>The true story&#45;&gt;Ending 4 (verge)</title>
<path fill="none" stroke="#000000" d="M1005.9299,-72.5708C1016.4548,-63.4408 1029.5095,-52.1163 1040.9938,-42.1539"/>
<polygon fill="#000000" stroke="#000000" points="1043.3829,-44.7149 1048.6433,-35.5182 1038.7959,-39.4272 1043.3829,-44.7149"/>
</g>
<!-- Discussed notification early -->
<g id="node20" class="node">
<title>Discussed notification early</title>
<ellipse fill="none" stroke="#000000" cx="118.8379" cy="-306" rx="118.6761" ry="18"/>
<text text-anchor="middle" x="118.8379" y="-301.8" font-family="Times,serif" font-size="14.00" fill="#000000">Discussed notification early</text>
</g>
<!-- Discussed notification early&#45;&gt;Discussed notification -->
<g id="edge29" class="edge">
<title>Discussed notification early&#45;&gt;Discussed notification</title>
<path fill="none" stroke="#000000" d="M151.2756,-288.5708C169.5971,-278.7264 192.6668,-266.3308 212.1871,-255.8422"/>
<polygon fill="#000000" stroke="#000000" points="214.0091,-258.8366 221.1614,-251.0202 210.6958,-252.6703 214.0091,-258.8366"/>
</g>
<!-- Start -->
<g id="node21" class="node">
<title>Start</title>
<ellipse fill="none" stroke="#000000" cx="509.8379" cy="-450" rx="29.049" ry="18"/>
<text text-anchor="middle" x="509.8379" y="-445.8" font-family="Times,serif" font-size="14.00" fill="#000000">Start</text>
</g>
<!-- Start&#45;&gt;Ignored notification -->
<g id="edge32" class="edge">
<title>Start&#45;&gt;Ignored notification</title>
<path fill="none" stroke="#000000" d="M509.8379,-431.8314C509.8379,-424.131 509.8379,-414.9743 509.8379,-406.4166"/>
<polygon fill="#000000" stroke="#000000" points="513.338,-406.4132 509.8379,-396.4133 506.338,-406.4133 513.338,-406.4132"/>
</g>
<!-- Start&#45;&gt;Kept secret early -->
<g id="edge30" class="edge">
<title>Start&#45;&gt;Kept secret early</title>
<path fill="none" stroke="#000000" d="M535.0685,-440.439C564.165,-429.4129 612.7222,-411.0123 649.6066,-397.035"/>
<polygon fill="#000000" stroke="#000000" points="651.0821,-400.2188 659.1929,-393.4023 648.6016,-393.6731 651.0821,-400.2188"/>
</g>
<!-- Start&#45;&gt;Discussed notification early -->
<g id="edge31" class="edge">
<title>Start&#45;&gt;Discussed notification early</title>
<path fill="none" stroke="#000000" d="M484.4846,-440.6627C421.9949,-417.6486 259.4456,-357.7839 173.6735,-326.1952"/>
<polygon fill="#000000" stroke="#000000" points="174.7023,-322.8443 164.1088,-322.6727 172.2831,-329.413 174.7023,-322.8443"/>
</g>
</g>
</svg>
