<?xml version="1.0" encoding="UTF-8" standalone="no"?>
<!DOCTYPE svg PUBLIC "-//W3C//DTD SVG 1.1//EN"
 "http://www.w3.org/Graphics/SVG/1.1/DTD/svg11.dtd">
<!-- Generated by graphviz version 2.30.1 (20170916.1124)
 -->
<!-- Title: %3 Pages: 1 -->
<svg width="1040pt" height="476pt"
 viewBox="0.00 0.00 1040.00 476.00" xmlns="http://www.w3.org/2000/svg" xmlns:xlink="http://www.w3.org/1999/xlink">
<g id="graph0" class="graph" transform="scale(1 1) rotate(0) translate(4 472)">
<title>%3</title>
<polygon fill="white" stroke="white" points="-4,5 -4,-472 1037,-472 1037,5 -4,5"/>
<!-- Discussed notification -->
<g id="node1" class="node"><title>Discussed notification</title>
<ellipse fill="none" stroke="black" cx="149" cy="-234" rx="89.0632" ry="18"/>
<text text-anchor="middle" x="149" y="-230.3" font-family="Times,serif" font-size="14.00">Discussed notification</text>
</g>
<!-- Dual private investigation -->
<g id="node21" class="node"><title>Dual private investigation</title>
<ellipse fill="none" stroke="black" cx="236" cy="-162" rx="102.536" ry="18"/>
<text text-anchor="middle" x="236" y="-158.3" font-family="Times,serif" font-size="14.00">Dual private investigation</text>
</g>
<!-- Discussed notification&#45;&gt;Dual private investigation -->
<g id="edge1" class="edge"><title>Discussed notification&#45;&gt;Dual private investigation</title>
<path fill="none" stroke="black" d="M169.618,-216.411C180.912,-207.324 195.083,-195.922 207.428,-185.989"/>
<polygon fill="black" stroke="black" points="209.632,-188.708 215.229,-179.713 205.243,-183.254 209.632,-188.708"/>
</g>
<!-- Reported late -->
<g id="node19" class="node"><title>Reported late</title>
<ellipse fill="none" stroke="black" cx="57" cy="-162" rx="57.2688" ry="18"/>
<text text-anchor="middle" x="57" y="-158.3" font-family="Times,serif" font-size="14.00">Reported late</text>
</g>
<!-- Discussed notification&#45;&gt;Reported late -->
<g id="edge2" class="edge"><title>Discussed notification&#45;&gt;Reported late</title>
<path fill="none" stroke="black" d="M127.197,-216.411C114.876,-207.036 99.3177,-195.198 85.981,-185.051"/>
<polygon fill="black" stroke="black" points="88.0906,-182.258 78.0129,-178.988 83.8519,-187.829 88.0906,-182.258"/>
</g>
<!-- Down the rabbit hole -->
<g id="node2" class="node"><title>Down the rabbit hole</title>
<ellipse fill="none" stroke="black" cx="543" cy="-162" rx="85.19" ry="18"/>
<text text-anchor="middle" x="543" y="-158.3" font-family="Times,serif" font-size="14.00">Down the rabbit hole</text>
</g>
<!-- The true story -->
<g id="node7" class="node"><title>The true story</title>
<ellipse fill="none" stroke="black" cx="811" cy="-90" rx="60.1672" ry="18"/>
<text text-anchor="middle" x="811" y="-86.3" font-family="Times,serif" font-size="14.00">The true story</text>
</g>
<!-- Down the rabbit hole&#45;&gt;The true story -->
<g id="edge3" class="edge"><title>Down the rabbit hole&#45;&gt;The true story</title>
<path fill="none" stroke="black" d="M594.356,-147.586C641.04,-135.393 709.679,-117.464 757.131,-105.07"/>
<polygon fill="black" stroke="black" points="758.129,-108.427 766.919,-102.514 756.359,-101.654 758.129,-108.427"/>
</g>
<!-- Ending 2 (fade) -->
<g id="node6" class="node"><title>Ending 2 (fade)</title>
<ellipse fill="none" stroke="black" cx="666" cy="-90" rx="65.9423" ry="18"/>
<text text-anchor="middle" x="666" y="-86.3" font-family="Times,serif" font-size="14.00">Ending 2 (fade)</text>
</g>
<!-- Down the rabbit hole&#45;&gt;Ending 2 (fade) -->
<g id="edge4" class="edge"><title>Down the rabbit hole&#45;&gt;Ending 2 (fade)</title>
<path fill="none" stroke="black" d="M571.219,-144.941C588.651,-135.02 611.188,-122.194 629.912,-111.538"/>
<polygon fill="black" stroke="black" points="631.798,-114.491 638.758,-106.503 628.336,-108.408 631.798,-114.491"/>
</g>
<!-- You can&#39;t ignore me -->
<g id="node3" class="node"><title>You can&#39;t ignore me</title>
<ellipse fill="none" stroke="black" cx="730" cy="-162" rx="83.2892" ry="18"/>
<text text-anchor="middle" x="730" y="-158.3" font-family="Times,serif" font-size="14.00">You can&#39;t ignore me</text>
</g>
<!-- You can&#39;t ignore me&#45;&gt;The true story -->
<g id="edge5" class="edge"><title>You can&#39;t ignore me&#45;&gt;The true story</title>
<path fill="none" stroke="black" d="M749.196,-144.411C759.763,-135.279 773.035,-123.809 784.569,-113.842"/>
<polygon fill="black" stroke="black" points="786.944,-116.415 792.221,-107.228 782.367,-111.119 786.944,-116.415"/>
</g>
<!-- You can&#39;t ignore me&#45;&gt;Ending 2 (fade) -->
<g id="edge6" class="edge"><title>You can&#39;t ignore me&#45;&gt;Ending 2 (fade)</title>
<path fill="none" stroke="black" d="M714.507,-144.055C706.646,-135.457 696.955,-124.857 688.306,-115.397"/>
<polygon fill="black" stroke="black" points="690.681,-112.808 681.35,-107.789 685.515,-117.531 690.681,-112.808"/>
</g>
<!-- Reported notification -->
<g id="node4" class="node"><title>Reported notification</title>
<ellipse fill="none" stroke="black" cx="236" cy="-90" rx="85.19" ry="18"/>
<text text-anchor="middle" x="236" y="-86.3" font-family="Times,serif" font-size="14.00">Reported notification</text>
</g>
<!-- Ending 1 (bad) -->
<g id="node18" class="node"><title>Ending 1 (bad)</title>
<ellipse fill="none" stroke="black" cx="333" cy="-18" rx="63.5411" ry="18"/>
<text text-anchor="middle" x="333" y="-14.3" font-family="Times,serif" font-size="14.00">Ending 1 (bad)</text>
</g>
<!-- Reported notification&#45;&gt;Ending 1 (bad) -->
<g id="edge7" class="edge"><title>Reported notification&#45;&gt;Ending 1 (bad)</title>
<path fill="none" stroke="black" d="M247.725,-72.055C259.343,-62.1543 276.538,-49.5994 292.662,-39.1885"/>
<polygon fill="black" stroke="black" points="294.862,-41.9396 301.467,-33.6556 291.138,-36.0126 294.862,-41.9396"/>
</g>
<!-- Reported notification&#45;&gt;Ending 1 (bad) -->
<g id="edge8" class="edge"><title>Reported notification&#45;&gt;Ending 1 (bad)</title>
<path fill="none" stroke="black" d="M258.988,-72.411C271.978,-63.0364 288.382,-51.1983 302.444,-41.0508"/>
<polygon fill="black" stroke="black" points="304.784,-43.6782 310.845,-34.9881 300.688,-38.0019 304.784,-43.6782"/>
</g>
<!-- Reported notification&#45;&gt;Ending 1 (bad) -->
<g id="edge9" class="edge"><title>Reported notification&#45;&gt;Ending 1 (bad)</title>
<path fill="none" stroke="black" d="M269.25,-73.2906C284.03,-64.1644 300.645,-52.4933 313.503,-42.3127"/>
<polygon fill="black" stroke="black" points="315.837,-44.9253 321.352,-35.8795 311.399,-39.5113 315.837,-44.9253"/>
</g>
<!-- Ending 3 (stop) -->
<g id="node5" class="node"><title>Ending 3 (stop)</title>
<ellipse fill="none" stroke="black" cx="734" cy="-18" rx="65.4659" ry="18"/>
<text text-anchor="middle" x="734" y="-14.3" font-family="Times,serif" font-size="14.00">Ending 3 (stop)</text>
</g>
<!-- Ending 4 (verge) -->
<g id="node8" class="node"><title>Ending 4 (verge)</title>
<ellipse fill="none" stroke="black" cx="888" cy="-18" rx="70.2668" ry="18"/>
<text text-anchor="middle" x="888" y="-14.3" font-family="Times,serif" font-size="14.00">Ending 4 (verge)</text>
</g>
<!-- The true story&#45;&gt;Ending 4 (verge) -->
<g id="edge10" class="edge"><title>The true story&#45;&gt;Ending 4 (verge)</title>
<path fill="none" stroke="black" d="M828.859,-72.7646C838.726,-63.7947 851.161,-52.4902 862.079,-42.5643"/>
<polygon fill="black" stroke="black" points="864.658,-44.95 869.703,-35.6334 859.949,-39.7704 864.658,-44.95"/>
</g>
<!-- The true story&#45;&gt;Ending 3 (stop) -->
<g id="edge11" class="edge"><title>The true story&#45;&gt;Ending 3 (stop)</title>
<path fill="none" stroke="black" d="M793.141,-72.7646C783.203,-63.7297 770.659,-52.3262 759.684,-42.3487"/>
<polygon fill="black" stroke="black" points="761.783,-39.5268 752.029,-35.3898 757.074,-44.7063 761.783,-39.5268"/>
</g>
<!-- Investigator tells NSA -->
<g id="node9" class="node"><title>Investigator tells NSA</title>
<ellipse fill="none" stroke="black" cx="429" cy="-90" rx="89.5377" ry="18"/>
<text text-anchor="middle" x="429" y="-86.3" font-family="Times,serif" font-size="14.00">Investigator tells NSA</text>
</g>
<!-- Investigator tells NSA&#45;&gt;Ending 1 (bad) -->
<g id="edge12" class="edge"><title>Investigator tells NSA&#45;&gt;Ending 1 (bad)</title>
<path fill="none" stroke="black" d="M395.694,-73.1159C381.063,-63.9832 364.679,-52.3456 352.029,-42.2042"/>
<polygon fill="black" stroke="black" points="354.241,-39.492 344.311,-35.7973 349.77,-44.8779 354.241,-39.492"/>
</g>
<!-- Investigator tells NSA&#45;&gt;Ending 1 (bad) -->
<g id="edge13" class="edge"><title>Investigator tells NSA&#45;&gt;Ending 1 (bad)</title>
<path fill="none" stroke="black" d="M406.249,-72.411C393.393,-63.0364 377.158,-51.1983 363.241,-41.0508"/>
<polygon fill="black" stroke="black" points="365.069,-38.0518 354.927,-34.9881 360.945,-43.7079 365.069,-38.0518"/>
</g>
<!-- Investigator tells NSA&#45;&gt;Ending 1 (bad) -->
<g id="edge14" class="edge"><title>Investigator tells NSA&#45;&gt;Ending 1 (bad)</title>
<path fill="none" stroke="black" d="M417.518,-72.055C406.041,-62.1543 389.025,-49.5994 373.05,-39.1885"/>
<polygon fill="black" stroke="black" points="374.643,-36.0546 364.323,-33.6556 370.895,-41.9664 374.643,-36.0546"/>
</g>
<!-- Kept secret late -->
<g id="node10" class="node"><title>Kept secret late</title>
<ellipse fill="none" stroke="black" cx="461" cy="-306" rx="65.4659" ry="18"/>
<text text-anchor="middle" x="461" y="-302.3" font-family="Times,serif" font-size="14.00">Kept secret late</text>
</g>
<!-- Kept secret -->
<g id="node12" class="node"><title>Kept secret</title>
<ellipse fill="none" stroke="black" cx="591" cy="-234" rx="50.5427" ry="18"/>
<text text-anchor="middle" x="591" y="-230.3" font-family="Times,serif" font-size="14.00">Kept secret</text>
</g>
<!-- Kept secret late&#45;&gt;Kept secret -->
<g id="edge15" class="edge"><title>Kept secret late&#45;&gt;Kept secret</title>
<path fill="none" stroke="black" d="M489.529,-289.638C508.931,-279.191 534.743,-265.292 555.477,-254.128"/>
<polygon fill="black" stroke="black" points="557.166,-257.194 564.311,-249.371 553.847,-251.03 557.166,-257.194"/>
</g>
<!-- Ignored notification -->
<g id="node11" class="node"><title>Ignored notification</title>
<ellipse fill="none" stroke="black" cx="367" cy="-378" rx="81.3646" ry="18"/>
<text text-anchor="middle" x="367" y="-374.3" font-family="Times,serif" font-size="14.00">Ignored notification</text>
</g>
<!-- Ignored notification&#45;&gt;Kept secret late -->
<g id="edge16" class="edge"><title>Ignored notification&#45;&gt;Kept secret late</title>
<path fill="none" stroke="black" d="M389.277,-360.411C401.776,-351.103 417.535,-339.367 431.097,-329.268"/>
<polygon fill="black" stroke="black" points="433.277,-332.008 439.207,-323.228 429.097,-326.394 433.277,-332.008"/>
</g>
<!-- Discussed notification late -->
<g id="node20" class="node"><title>Discussed notification late</title>
<ellipse fill="none" stroke="black" cx="234" cy="-306" rx="104.461" ry="18"/>
<text text-anchor="middle" x="234" y="-302.3" font-family="Times,serif" font-size="14.00">Discussed notification late</text>
</g>
<!-- Ignored notification&#45;&gt;Discussed notification late -->
<g id="edge17" class="edge"><title>Ignored notification&#45;&gt;Discussed notification late</title>
<path fill="none" stroke="black" d="M336.82,-361.116C318.211,-351.321 294.127,-338.646 273.947,-328.025"/>
<polygon fill="black" stroke="black" points="275.463,-324.867 264.983,-323.307 272.202,-331.062 275.463,-324.867"/>
</g>
<!-- Reported early -->
<g id="node16" class="node"><title>Reported early</title>
<ellipse fill="none" stroke="black" cx="367" cy="-234" rx="63.0666" ry="18"/>
<text text-anchor="middle" x="367" y="-230.3" font-family="Times,serif" font-size="14.00">Reported early</text>
</g>
<!-- Ignored notification&#45;&gt;Reported early -->
<g id="edge18" class="edge"><title>Ignored notification&#45;&gt;Reported early</title>
<path fill="none" stroke="black" d="M367,-359.871C367,-335.67 367,-291.211 367,-262.393"/>
<polygon fill="black" stroke="black" points="370.5,-262.189 367,-252.189 363.5,-262.189 370.5,-262.189"/>
</g>
<!-- Still down the rabbit hole -->
<g id="node17" class="node"><title>Still down the rabbit hole</title>
<ellipse fill="none" stroke="black" cx="932" cy="-162" rx="100.611" ry="18"/>
<text text-anchor="middle" x="932" y="-158.3" font-family="Times,serif" font-size="14.00">Still down the rabbit hole</text>
</g>
<!-- Kept secret&#45;&gt;Still down the rabbit hole -->
<g id="edge19" class="edge"><title>Kept secret&#45;&gt;Still down the rabbit hole</title>
<path fill="none" stroke="black" d="M633.498,-224.276C689.824,-212.714 790.071,-192.135 858.726,-178.042"/>
<polygon fill="black" stroke="black" points="859.526,-181.45 868.618,-176.011 858.118,-174.593 859.526,-181.45"/>
</g>
<!-- Kept secret&#45;&gt;You can&#39;t ignore me -->
<g id="edge20" class="edge"><title>Kept secret&#45;&gt;You can&#39;t ignore me</title>
<path fill="none" stroke="black" d="M619.129,-218.834C639.348,-208.652 666.913,-194.77 689.499,-183.396"/>
<polygon fill="black" stroke="black" points="691.161,-186.478 698.518,-178.854 688.013,-180.226 691.161,-186.478"/>
</g>
<!-- Kept secret&#45;&gt;Investigator tells NSA -->
<g id="edge21" class="edge"><title>Kept secret&#45;&gt;Investigator tells NSA</title>
<path fill="none" stroke="black" d="M544.121,-227.418C512.454,-221.163 472.162,-207.935 448,-180 433.349,-163.061 429.098,-137.594 428.221,-118.236"/>
<polygon fill="black" stroke="black" points="431.72,-118.137 428.036,-108.203 424.721,-118.266 431.72,-118.137"/>
</g>
<!-- Kept secret&#45;&gt;Down the rabbit hole -->
<g id="edge22" class="edge"><title>Kept secret&#45;&gt;Down the rabbit hole</title>
<path fill="none" stroke="black" d="M579.625,-216.411C573.91,-208.077 566.861,-197.797 560.478,-188.488"/>
<polygon fill="black" stroke="black" points="563.169,-186.224 554.627,-179.956 557.396,-190.183 563.169,-186.224"/>
</g>
<!-- Discussed notification early -->
<g id="node13" class="node"><title>Discussed notification early</title>
<ellipse fill="none" stroke="black" cx="130" cy="-378" rx="109.286" ry="18"/>
<text text-anchor="middle" x="130" y="-374.3" font-family="Times,serif" font-size="14.00">Discussed notification early</text>
</g>
<!-- Discussed notification early&#45;&gt;Discussed notification -->
<g id="edge23" class="edge"><title>Discussed notification early&#45;&gt;Discussed notification</title>
<path fill="none" stroke="black" d="M124.514,-360.019C119.492,-341.922 113.722,-312.554 120,-288 122.379,-278.697 126.765,-269.27 131.418,-260.997"/>
<polygon fill="black" stroke="black" points="134.544,-262.59 136.693,-252.216 128.543,-258.986 134.544,-262.59"/>
</g>
<!-- Start -->
<g id="node14" class="node"><title>Start</title>
<ellipse fill="none" stroke="black" cx="367" cy="-450" rx="26.949" ry="18"/>
<text text-anchor="middle" x="367" y="-446.3" font-family="Times,serif" font-size="14.00">Start</text>
</g>
<!-- Kept secret early -->
<g id="node15" class="node"><title>Kept secret early</title>
<ellipse fill="none" stroke="black" cx="615" cy="-306" rx="70.2668" ry="18"/>
<text text-anchor="middle" x="615" y="-302.3" font-family="Times,serif" font-size="14.00">Kept secret early</text>
</g>
<!-- Start&#45;&gt;Kept secret early -->
<g id="edge24" class="edge"><title>Start&#45;&gt;Kept secret early</title>
<path fill="none" stroke="black" d="M386.876,-437.62C428.599,-413.73 525.829,-358.058 578.886,-327.678"/>
<polygon fill="black" stroke="black" points="580.692,-330.677 587.631,-322.671 577.214,-324.602 580.692,-330.677"/>
</g>
<!-- Start&#45;&gt;Ignored notification -->
<g id="edge25" class="edge"><title>Start&#45;&gt;Ignored notification</title>
<path fill="none" stroke="black" d="M367,-431.697C367,-423.983 367,-414.712 367,-406.112"/>
<polygon fill="black" stroke="black" points="370.5,-406.104 367,-396.104 363.5,-406.104 370.5,-406.104"/>
</g>
<!-- Start&#45;&gt;Discussed notification early -->
<g id="edge26" class="edge"><title>Start&#45;&gt;Discussed notification early</title>
<path fill="none" stroke="black" d="M342.529,-441.772C306.938,-431.26 239.763,-411.419 190.427,-396.848"/>
<polygon fill="black" stroke="black" points="191.395,-393.484 180.813,-394.008 189.412,-400.197 191.395,-393.484"/>
</g>
<!-- Kept secret early&#45;&gt;Kept secret -->
<g id="edge27" class="edge"><title>Kept secret early&#45;&gt;Kept secret</title>
<path fill="none" stroke="black" d="M609.19,-288.055C606.489,-280.176 603.211,-270.617 600.187,-261.794"/>
<polygon fill="black" stroke="black" points="603.477,-260.6 596.923,-252.275 596.855,-262.87 603.477,-260.6"/>
</g>
<!-- Reported early&#45;&gt;Reported notification -->
<g id="edge28" class="edge"><title>Reported early&#45;&gt;Reported notification</title>
<path fill="none" stroke="black" d="M367.408,-215.706C366.976,-196.252 363.489,-164.678 347,-144 334.129,-127.86 315.151,-116.352 296.514,-108.28"/>
<polygon fill="black" stroke="black" points="297.71,-104.988 287.128,-104.476 295.081,-111.476 297.71,-104.988"/>
</g>
<!-- Still down the rabbit hole&#45;&gt;The true story -->
<g id="edge29" class="edge"><title>Still down the rabbit hole&#45;&gt;The true story</title>
<path fill="none" stroke="black" d="M903.631,-144.588C886.619,-134.746 864.832,-122.142 846.662,-111.631"/>
<polygon fill="black" stroke="black" points="847.943,-108.328 837.534,-106.35 844.437,-114.387 847.943,-108.328"/>
</g>
<!-- Still down the rabbit hole&#45;&gt;Ending 2 (fade) -->
<g id="edge30" class="edge"><title>Still down the rabbit hole&#45;&gt;Ending 2 (fade)</title>
<path fill="none" stroke="black" d="M877.85,-146.75C832.423,-134.795 767.787,-117.786 721.88,-105.705"/>
<polygon fill="black" stroke="black" points="722.654,-102.29 712.092,-103.13 720.872,-109.059 722.654,-102.29"/>
</g>
<!-- Reported late&#45;&gt;Reported notification -->
<g id="edge31" class="edge"><title>Reported late&#45;&gt;Reported notification</title>
<path fill="none" stroke="black" d="M91.513,-147.503C118.831,-136.82 157.308,-121.773 187.688,-109.893"/>
<polygon fill="black" stroke="black" points="189.204,-113.058 197.242,-106.157 186.654,-106.539 189.204,-113.058"/>
</g>
<!-- Discussed notification late&#45;&gt;Discussed notification -->
<g id="edge32" class="edge"><title>Discussed notification late&#45;&gt;Discussed notification</title>
<path fill="none" stroke="black" d="M213.424,-288.055C202.486,-279.047 188.879,-267.842 176.993,-258.053"/>
<polygon fill="black" stroke="black" points="179.038,-255.203 169.093,-251.547 174.588,-260.606 179.038,-255.203"/>
</g>
</g>
</svg>
